{
  "accessors": [
    {
      "bufferView": 2,
      "componentType": 5126,
      "count": 36,
      "max": [
        2498.02001953125,
        2162.0146484375,
        10.0
      ],
      "min": [
        -2501.97998046875,
        -2168.11328125,
        0.0
      ],
      "type": "VEC3"
    },
    {
      "bufferView": 2,
      "byteOffset": 432,
      "componentType": 5126,
      "count": 36,
      "max": [
        0.8660253882408142,
        1.0,
        1.0
      ],
      "min": [
        -0.8660255074501038,
        -1.0,
        -1.0
      ],
      "type": "VEC3"
    },
    {
      "bufferView": 3,
      "componentType": 5126,
      "count": 36,
      "max": [
        1.0,
        0.8660253882408142,
        0.0,
        1.0
      ],
      "min": [
        -1.0,
        -1.0,
        0.0,
        -1.0
      ],
      "type": "VEC4"
    },
    {
      "bufferView": 1,
      "componentType": 5126,
      "count": 36,
      "max": [
        635.0001220703125,
        5.079999923706055
      ],
      "min": [
        -635.0001220703125,
        -1.4938000440597534
      ],
      "type": "VEC2"
    },
    {
      "bufferView": 0,
      "componentType": 5125,
      "count": 60,
      "type": "SCALAR"
    },
    {
      "bufferView": 2,
      "byteOffset": 864,
      "componentType": 5126,
      "count": 36,
      "max": [
        2498.02001953125,
        2162.0146484375,
        10.0
      ],
      "min": [
        -2501.97998046875,
        -2168.11328125,
        0.0
      ],
      "type": "VEC3"
    },
    {
      "bufferView": 2,
      "byteOffset": 1296,
      "componentType": 5126,
      "count": 36,
      "max": [
        0.8660255074501038,
        1.0,
        1.0
      ],
      "min": [
        -0.8660253882408142,
        -1.0,
        -1.0
      ],
      "type": "VEC3"
    },
    {
      "bufferView": 1,
      "byteOffset": 288,
      "componentType": 5126,
      "count": 36,
      "max": [
        1250.0,
        10.0
      ],
      "min": [
        -1250.0,
        -2.940551996231079
      ],
      "type": "VEC2"
    },
    {
      "bufferView": 0,
      "byteOffset": 240,
      "componentType": 5125,
      "count": 60,
      "type": "SCALAR"
    },
    {
      "bufferView": 2,
      "byteOffset": 1728,
      "componentType": 5126,
      "count": 6,
      "max": [
        2502.42333984375,
        2168.114013671875,
        994.9041748046875
      ],
      "min": [
        -2497.57666015625,
        -2162.013916015625,
        994.9041748046875
      ],
      "type": "VEC3"
    },
    {
      "bufferView": 2,
      "byteOffset": 1800,
      "componentType": 5126,
      "count": 6,
      "max": [
        0.0,
        0.0,
        -1.0
      ],
      "min": [
        0.0,
        0.0,
        -1.0
      ],
      "type": "VEC3"
    },
    {
      "bufferView": 1,
      "byteOffset": 576,
      "componentType": 5126,
      "count": 6,
      "max": [
        2.549633026123047,
        3.3350250720977783
      ],
      "min": [
        -2.078871011734009,
        -1.8929380178451538
      ],
      "type": "VEC2"
    },
    {
      "bufferView": 0,
      "byteOffset": 480,
      "componentType": 5125,
      "count": 12,
      "type": "SCALAR"
    },
    {
      "bufferView": 2,
      "byteOffset": 1872,
      "componentType": 5126,
      "count": 51750,
      "max": [
        2502.42333984375,
        2168.114013671875,
        1000.0460205078125
      ],
      "min": [
        -2502.42333984375,
        -2168.11376953125,
        0.045712780207395554
      ],
      "type": "VEC3"
    },
    {
      "bufferView": 2,
      "byteOffset": 622872,
      "componentType": 5126,
      "count": 51750,
      "max": [
        1.0,
        1.0,
        1.0
      ],
      "min": [
        -1.0,
        -1.0,
        -1.0
      ],
      "type": "VEC3"
    },
    {
      "bufferView": 1,
      "byteOffset": 624,
      "componentType": 5126,
      "count": 51750,
      "max": [
        89330.90625,
        126295.0
      ],
      "min": [
        -86034.2890625,
        -99111.21875
      ],
      "type": "VEC2"
    },
    {
      "bufferView": 0,
      "byteOffset": 528,
      "componentType": 5125,
      "count": 79938,
      "type": "SCALAR"
    },
    {
      "bufferView": 2,
      "byteOffset": 1243872,
      "componentType": 5126,
      "count": 8568,
      "max": [
        2467.37255859375,
        2158.7216796875,
        866.0263061523438
      ],
      "min": [
        -2471.51953125,
        -2164.8193359375,
        0.9995055198669434
      ],
      "type": "VEC3"
    },
    {
      "bufferView": 2,
      "byteOffset": 1346688,
      "componentType": 5126,
      "count": 8568,
      "max": [
        1.0,
        1.0,
        1.0
      ],
      "min": [
        -1.0,
        -1.0,
        -1.0
      ],
      "type": "VEC3"
    },
    {
      "bufferView": 0,
      "byteOffset": 320280,
      "componentType": 5125,
      "count": 17454,
      "type": "SCALAR"
    },
    {
      "bufferView": 2,
      "byteOffset": 1449504,
      "componentType": 5126,
      "count": 8898,
      "max": [
        2469.104736328125,
        2160.7216796875,
        855.3628540039063
      ],
      "min": [
        -2473.25146484375,
        -2166.8193359375,
        10.999507904052734
      ],
      "type": "VEC3"
    },
    {
      "bufferView": 2,
      "byteOffset": 1556280,
      "componentType": 5126,
      "count": 8898,
      "max": [
        1.0,
        1.0,
        1.0
      ],
      "min": [
        -1.0,
        -1.0,
        -1.0
      ],
      "type": "VEC3"
    },
    {
      "bufferView": 1,
      "byteOffset": 414624,
      "componentType": 5126,
      "count": 8898,
      "max": [
        3.278188943862915,
        3.278188943862915
      ],
      "min": [
        -2.278188943862915,
        -2.278188943862915
      ],
      "type": "VEC2"
    },
    {
      "bufferView": 0,
      "byteOffset": 390096,
      "componentType": 5125,
      "count": 15264,
      "type": "SCALAR"
    }
  ],
  "asset": {
    "extras": {
      "author": "xinige (https://sketchfab.com/l13261404616)",
      "license": "SKETCHFAB Standard (https://sketchfab.com/licenses)",
      "source": "https://sketchfab.com/3d-models/modern-architectural-style-gallery-museum-0bb4ed06576a4264885861b13c0ae6a5",
      "title": "Modern architectural style gallery museum"
    },
    "generator": "Sketchfab-13.28.0",
    "version": "2.0"
  },
  "bufferViews": [
    {
      "buffer": 0,
      "byteLength": 451152,
      "name": "floatBufferViews",
      "target": 34963
    },
    {
      "buffer": 0,
      "byteLength": 485808,
      "byteOffset": 451152,
      "byteStride": 8,
      "name": "floatBufferViews",
      "target": 34962
    },
    {
      "buffer": 0,
      "byteLength": 1663056,
      "byteOffset": 936960,
      "byteStride": 12,
      "name": "floatBufferViews",
      "target": 34962
    },
    {
      "buffer": 0,
      "byteLength": 576,
      "byteOffset": 2600016,
      "byteStride": 16,
      "name": "floatBufferViews",
      "target": 34962
    }
  ],
  "buffers": [
    {
      "byteLength": 2600592,
      "uri": "scene.bin"
    }
  ],
  "images": [
    {
      "uri": "textures/material_baseColor.jpeg"
    },
    {
      "uri": "textures/material_metallicRoughness.png"
    },
    {
      "uri": "textures/material_normal.png"
    },
    {
      "uri": "textures/Mat3d66-1485451-7-9287_baseColor.jpeg"
    },
    {
      "uri": "textures/Standard_7_baseColor.jpeg"
    },
    {
      "uri": "textures/material_3_metallicRoughness.png"
    },
    {
      "uri": "textures/Mat3d66-1485451-2-2475_baseColor.png"
    }
  ],
  "materials": [
    {
      "name": "material",
      "normalTexture": {
        "index": 2,
        "scale": 0.0
      },
      "pbrMetallicRoughness": {
        "baseColorFactor": [
          0.2482758620689655,
          0.2482758620689655,
          0.2482758620689655,
          1.0
        ],
        "baseColorTexture": {
          "index": 0
        },
        "metallicFactor": 0.0,
        "metallicRoughnessTexture": {
          "index": 1
        },
        "roughnessFactor": 0.7264367816091954
      }
    },
    {
      "name": "Mat3d66-1485451-7-9287",
      "pbrMetallicRoughness": {
        "baseColorTexture": {
          "index": 3
        },
        "metallicFactor": 0.0,
        "roughnessFactor": 0.6
      }
    },
    {
      "name": "Standard_7",
      "pbrMetallicRoughness": {
        "baseColorTexture": {
          "index": 4
        },
        "metallicFactor": 0.0,
        "roughnessFactor": 0.6
      }
    },
    {
      "name": "material_3",
      "pbrMetallicRoughness": {
        "baseColorFactor": [
          0.32796934865900385,
          0.32796934865900385,
          0.32796934865900385,
          1.0
        ],
        "baseColorTexture": {
          "index": 4
        },
        "metallicFactor": 0.0,
        "metallicRoughnessTexture": {
          "index": 5
        },
        "roughnessFactor": 0.6406130268199234
      }
    },
    {
      "name": "Mat3d66-1485451-1-9760",
      "pbrMetallicRoughness": {
        "baseColorFactor": [
          0.26114942528735635,
          0.26114942528735635,
          0.26114942528735635,
          1.0
        ],
        "metallicFactor": 0.8490421455938697,
        "roughnessFactor": 0.6
      }
    },
    {
      "alphaMode": "BLEND",
      "emissiveFactor": [
        1.0,
        1.0,
        1.0
      ],
      "name": "Mat3d66-1485451-2-2475",
      "pbrMetallicRoughness": {
        "baseColorFactor": [
          1.0,
          1.0,
          1.0,
          0.19923371647509577
        ],
        "baseColorTexture": {
          "index": 6
        },
        "metallicFactor": 0.0,
        "roughnessFactor": 0.6
      }
    }
  ],
  "meshes": [
    {
      "name": "Material2",
      "primitives": [
        {
          "attributes": {
            "NORMAL": 1,
            "POSITION": 0,
            "TANGENT": 2,
            "TEXCOORD_0": 3
          },
          "indices": 4,
          "material": 0,
          "mode": 4
        }
      ]
    },
    {
      "name": "Material3",
      "primitives": [
        {
          "attributes": {
            "NORMAL": 6,
            "POSITION": 5,
            "TEXCOORD_0": 7
          },
          "indices": 8,
          "material": 1,
          "mode": 4
        }
      ]
    },
    {
      "name": "Material2",
      "primitives": [
        {
          "attributes": {
            "NORMAL": 10,
            "POSITION": 9,
            "TEXCOORD_0": 11
          },
          "indices": 12,
          "material": 2,
          "mode": 4
        }
      ]
    },
    {
      "name": "Material2",
      "primitives": [
        {
          "attributes": {
            "NORMAL": 14,
            "POSITION": 13,
            "TEXCOORD_0": 15
          },
          "indices": 16,
          "material": 3,
          "mode": 4
        }
      ]
    },
    {
      "name": "Material2",
      "primitives": [
        {
          "attributes": {
            "NORMAL": 18,
            "POSITION": 17
          },
          "indices": 19,
          "material": 4,
          "mode": 4
        }
      ]
    },
    {
      "name": "Material2",
      "primitives": [
        {
          "attributes": {
            "NORMAL": 21,
            "POSITION": 20,
            "TEXCOORD_0": 22
          },
          "indices": 23,
          "material": 5,
          "mode": 4
        }
      ]
    }
  ],
  "nodes": [
    {
      "children": [
        1
      ],
      "matrix": [
        1.0,
        0.0,
        0.0,
        0.0,
        0.0,
        2.220446049250313e-16,
        -1.0,
        0.0,
        0.0,
        1.0,
        2.220446049250313e-16,
        0.0,
        0.0,
        0.0,
        0.0,
        1.0
      ],
      "name": "Sketchfab_model"
    },
    {
      "children": [
        2,
        3,
        4,
        5,
        6,
        7,
        8
      ],
      "name": "Collada visual scene group"
    },
    {
      "mesh": 0,
      "name": "Material2"
    },
    {
      "mesh": 1,
      "name": "Material3"
    },
    {
      "mesh": 2,
      "name": "Material2"
    },
    {
      "mesh": 3,
      "name": "Material2"
    },
    {
      "mesh": 4,
      "name": "Material2"
    },
    {
      "mesh": 5,
      "name": "Material2"
    },
    {
      "children": [
        9
      ],
      "name": "SketchUp"
    },
    {
      "children": [
        10
      ],
      "matrix": [
        -0.7113084,
        -0.7028801,
        -4.336809e-19,
        0.0,
        -0.005123085,
        0.005184516,
        0.9999734,
        0.0,
        -0.7028614,
        0.7112895,
        -0.007288704,
        0.0,
        -359.1233,
        721.2683,
        162.1143,
        1.0
      ],
      "name": "skp_camera_Last_Saved_SketchUp_View"
    },
    {
      "name": "ID1"
    }
  ],
  "samplers": [
    {
      "magFilter": 9729,
      "minFilter": 9987,
      "wrapS": 10497,
      "wrapT": 10497
    }
  ],
  "scene": 0,
  "scenes": [
    {
      "name": "Sketchfab_Scene",
      "nodes": [
        0
      ]
    }
  ],
  "textures": [
    {
      "sampler": 0,
      "source": 0
    },
    {
      "sampler": 0,
      "source": 1
    },
    {
      "sampler": 0,
      "source": 2
    },
    {
      "sampler": 0,
      "source": 3
    },
    {
      "sampler": 0,
      "source": 4
    },
    {
      "sampler": 0,
      "source": 5
    },
    {
      "sampler": 0,
      "source": 6
    }
  ]
}
